<svg xmlns="http://www.w3.org/2000/svg" xmlns:xlink="http://www.w3.org/1999/xlink" width="300" zoomAndPan="magnify" viewBox="0 0 224.87999 225" height="300" preserveAspectRatio="xMidYMid meet" version="1.0"><defs><clipPath id="c76b138b87"><path d="M 41.773438 147 L 52 147 L 52 158 L 41.773438 158 Z M 41.773438 147 " clip-rule="nonzero"/></clipPath><clipPath id="6cace9aac0"><path d="M 57 160 L 94 160 L 94 177.433594 L 57 177.433594 Z M 57 160 " clip-rule="nonzero"/></clipPath></defs><path fill="#64b5f6" d="M 134.972656 136.976562 L 117.339844 119.328125 C 116.917969 118.90625 116.417969 118.640625 115.832031 118.523438 C 115.25 118.40625 114.683594 118.460938 114.132812 118.6875 C 113.585938 118.914062 113.144531 119.277344 112.8125 119.769531 C 112.484375 120.265625 112.316406 120.808594 112.316406 121.402344 L 112.316406 162.539062 C 112.316406 162.847656 112.367188 163.148438 112.460938 163.441406 C 112.554688 163.734375 112.691406 164.003906 112.875 164.253906 C 113.054688 164.503906 113.269531 164.71875 113.515625 164.902344 C 113.765625 165.085938 114.035156 165.226562 114.328125 165.320312 C 114.628906 165.425781 114.9375 165.476562 115.257812 165.476562 C 115.71875 165.476562 116.15625 165.371094 116.570312 165.164062 C 116.984375 164.957031 117.332031 164.671875 117.609375 164.300781 L 135.242188 140.808594 C 135.457031 140.527344 135.613281 140.21875 135.710938 139.878906 C 135.8125 139.539062 135.847656 139.195312 135.824219 138.84375 C 135.800781 138.492188 135.714844 138.152344 135.566406 137.832031 C 135.421875 137.511719 135.222656 137.226562 134.972656 136.976562 Z M 134.972656 136.976562 " fill-opacity="1" fill-rule="nonzero"/><path fill="#1976d2" d="M 122.0625 130.390625 L 104.429688 124.519531 C 103.902344 124.34375 103.367188 124.320312 102.824219 124.445312 C 102.28125 124.574219 101.8125 124.832031 101.417969 125.226562 C 101.027344 125.621094 100.765625 126.085938 100.636719 126.628906 C 100.507812 127.167969 100.53125 127.703125 100.707031 128.230469 L 112.464844 163.464844 C 112.5625 163.757812 112.703125 164.03125 112.886719 164.277344 C 113.066406 164.527344 113.285156 164.742188 113.535156 164.921875 C 113.785156 165.101562 114.058594 165.238281 114.351562 165.332031 C 114.648438 165.429688 114.949219 165.476562 115.257812 165.476562 L 115.4375 165.476562 C 115.761719 165.453125 116.074219 165.382812 116.371094 165.261719 C 116.671875 165.136719 116.945312 164.96875 117.1875 164.757812 C 117.429688 164.546875 117.632812 164.300781 117.796875 164.019531 C 117.960938 163.742188 118.074219 163.441406 118.136719 163.125 L 124.015625 133.761719 C 124.085938 133.410156 124.09375 133.058594 124.035156 132.707031 C 123.980469 132.351562 123.859375 132.019531 123.679688 131.707031 C 123.5 131.398438 123.269531 131.128906 122.992188 130.902344 C 122.714844 130.675781 122.40625 130.507812 122.0625 130.390625 Z M 122.0625 130.390625 " fill-opacity="1" fill-rule="nonzero"/><path fill="#2196f3" d="M 181.601562 48.582031 C 181.132812 48.253906 180.613281 48.078125 180.042969 48.054688 C 179.472656 48.03125 178.941406 48.160156 178.445312 48.449219 L 66.753906 113.046875 C 66.253906 113.335938 65.871094 113.738281 65.609375 114.25 C 65.347656 114.765625 65.242188 115.308594 65.304688 115.886719 C 65.363281 116.460938 65.570312 116.972656 65.933594 117.421875 C 66.296875 117.871094 66.75 118.1875 67.300781 118.371094 L 120.089844 135.953125 L 161.121094 153.523438 C 161.324219 153.613281 161.535156 153.675781 161.753906 153.714844 C 161.972656 153.753906 162.191406 153.769531 162.414062 153.757812 C 162.632812 153.746094 162.851562 153.710938 163.066406 153.652344 C 163.277344 153.59375 163.480469 153.511719 163.675781 153.40625 C 163.871094 153.300781 164.050781 153.175781 164.21875 153.03125 C 164.382812 152.882812 164.53125 152.722656 164.660156 152.542969 C 164.792969 152.363281 164.898438 152.171875 164.984375 151.964844 C 165.070312 151.761719 165.132812 151.550781 165.171875 151.332031 L 182.808594 51.5 C 182.90625 50.9375 182.847656 50.394531 182.632812 49.867188 C 182.414062 49.339844 182.070312 48.910156 181.601562 48.582031 Z M 181.601562 48.582031 " fill-opacity="1" fill-rule="nonzero"/><path fill="#1976d2" d="M 182.3125 52.691406 C 182.53125 52.394531 182.683594 52.066406 182.777344 51.707031 C 182.867188 51.347656 182.890625 50.988281 182.847656 50.621094 C 182.800781 50.253906 182.691406 49.90625 182.515625 49.582031 C 182.339844 49.257812 182.109375 48.976562 181.828125 48.738281 C 181.546875 48.496094 181.230469 48.320312 180.878906 48.199219 C 180.527344 48.078125 180.167969 48.027344 179.800781 48.042969 C 179.429688 48.0625 179.078125 48.144531 178.738281 48.292969 C 178.398438 48.441406 178.101562 48.648438 177.839844 48.910156 L 101.1875 129.671875 L 123.3125 137.304688 Z M 182.3125 52.691406 " fill-opacity="1" fill-rule="nonzero"/><g clip-path="url(#c76b138b87)"><path fill="#1976d2" d="M 48.957031 157.8125 C 48.191406 157.8125 47.527344 157.554688 46.964844 157.035156 C 45.5 155.6875 44.058594 154.304688 42.636719 152.882812 C 42.363281 152.609375 42.152344 152.292969 42 151.933594 C 41.851562 151.570312 41.777344 151.199219 41.777344 150.808594 C 41.777344 150.417969 41.851562 150.042969 42 149.683594 C 42.152344 149.324219 42.363281 149.007812 42.636719 148.730469 C 42.914062 148.457031 43.230469 148.242188 43.589844 148.09375 C 43.949219 147.945312 44.324219 147.871094 44.714844 147.871094 C 45.105469 147.871094 45.480469 147.945312 45.839844 148.09375 C 46.199219 148.238281 46.519531 148.453125 46.792969 148.726562 C 48.160156 150.089844 49.546875 151.421875 50.949219 152.714844 C 51.398438 153.125 51.6875 153.625 51.824219 154.214844 C 51.960938 154.804688 51.917969 155.378906 51.699219 155.941406 C 51.476562 156.507812 51.117188 156.960938 50.617188 157.300781 C 50.117188 157.640625 49.5625 157.8125 48.957031 157.8125 Z M 48.957031 157.8125 " fill-opacity="1" fill-rule="nonzero"/></g><g clip-path="url(#6cace9aac0)"><path fill="#1976d2" d="M 89.003906 177.160156 C 86.164062 177.152344 83.355469 176.859375 80.574219 176.285156 C 80.179688 176.222656 79.8125 176.082031 79.472656 175.867188 C 79.136719 175.65625 78.855469 175.382812 78.628906 175.054688 C 78.402344 174.726562 78.246094 174.367188 78.167969 173.976562 C 78.085938 173.582031 78.085938 173.191406 78.167969 172.800781 C 78.246094 172.410156 78.402344 172.050781 78.628906 171.71875 C 78.855469 171.390625 79.136719 171.121094 79.476562 170.90625 C 79.8125 170.695312 80.179688 170.554688 80.574219 170.492188 C 80.96875 170.425781 81.359375 170.441406 81.75 170.535156 C 84.148438 171.03125 86.570312 171.28125 89.019531 171.289062 L 90.359375 171.289062 C 90.757812 171.25 91.140625 171.296875 91.519531 171.421875 C 91.894531 171.550781 92.230469 171.75 92.519531 172.019531 C 92.8125 172.289062 93.035156 172.605469 93.191406 172.96875 C 93.347656 173.335938 93.417969 173.714844 93.410156 174.113281 C 93.425781 174.503906 93.367188 174.878906 93.230469 175.242188 C 93.09375 175.609375 92.894531 175.933594 92.628906 176.21875 C 92.363281 176.503906 92.054688 176.726562 91.699219 176.890625 C 91.34375 177.050781 90.972656 177.140625 90.585938 177.15625 L 89.050781 177.15625 Z M 67.941406 171.542969 C 67.460938 171.542969 67.011719 171.433594 66.589844 171.210938 C 63.695312 169.699219 60.910156 168.011719 58.234375 166.144531 C 57.929688 165.917969 57.675781 165.640625 57.476562 165.316406 C 57.28125 164.988281 57.148438 164.636719 57.085938 164.261719 C 57.027344 163.886719 57.039062 163.511719 57.121094 163.140625 C 57.207031 162.769531 57.355469 162.425781 57.574219 162.113281 C 57.792969 161.800781 58.058594 161.539062 58.378906 161.332031 C 58.699219 161.121094 59.046875 160.980469 59.417969 160.90625 C 59.792969 160.832031 60.167969 160.832031 60.542969 160.90625 C 60.917969 160.976562 61.265625 161.117188 61.585938 161.324219 C 64.050781 163.054688 66.617188 164.621094 69.285156 166.019531 C 69.578125 166.171875 69.839844 166.367188 70.066406 166.605469 C 70.292969 166.84375 70.472656 167.113281 70.609375 167.414062 C 70.746094 167.710938 70.828125 168.023438 70.859375 168.351562 C 70.890625 168.679688 70.867188 169.003906 70.789062 169.324219 C 70.710938 169.644531 70.585938 169.941406 70.40625 170.21875 C 70.226562 170.496094 70.007812 170.734375 69.75 170.9375 C 69.492188 171.140625 69.207031 171.296875 68.894531 171.402344 C 68.582031 171.511719 68.261719 171.566406 67.933594 171.566406 Z M 67.941406 171.542969 " fill-opacity="1" fill-rule="nonzero"/></g><path fill="#1976d2" d="M 104.117188 174.011719 C 103.777344 174.015625 103.445312 173.960938 103.125 173.851562 C 102.804688 173.738281 102.511719 173.578125 102.246094 173.363281 C 101.984375 173.148438 101.761719 172.898438 101.585938 172.609375 C 101.40625 172.320312 101.285156 172.007812 101.214844 171.675781 C 101.144531 171.34375 101.136719 171.007812 101.179688 170.671875 C 101.226562 170.335938 101.332031 170.019531 101.488281 169.71875 C 101.644531 169.417969 101.847656 169.152344 102.097656 168.921875 C 102.347656 168.691406 102.628906 168.507812 102.941406 168.375 C 104.636719 167.652344 106.273438 166.820312 107.863281 165.886719 C 108.195312 165.699219 108.554688 165.582031 108.933594 165.535156 C 109.316406 165.488281 109.691406 165.515625 110.0625 165.617188 C 110.429688 165.71875 110.769531 165.882812 111.074219 166.117188 C 111.378906 166.347656 111.628906 166.628906 111.824219 166.960938 C 112.019531 167.289062 112.144531 167.644531 112.199219 168.023438 C 112.253906 168.402344 112.238281 168.777344 112.148438 169.148438 C 112.054688 169.519531 111.898438 169.863281 111.671875 170.171875 C 111.449219 170.484375 111.171875 170.738281 110.847656 170.941406 C 109.042969 172.007812 107.179688 172.953125 105.25 173.777344 C 104.890625 173.933594 104.511719 174.011719 104.117188 174.011719 Z M 104.117188 174.011719 " fill-opacity="1" fill-rule="nonzero"/></svg>