<svg xmlns="http://www.w3.org/2000/svg" xmlns:xlink="http://www.w3.org/1999/xlink" width="300" zoomAndPan="magnify" viewBox="0 0 224.87999 225" height="300" preserveAspectRatio="xMidYMid meet" version="1.0"><defs><clipPath id="bfb35fa5ec"><path d="M 78 27.601562 L 147 27.601562 L 147 111 L 78 111 Z M 78 27.601562 " clip-rule="nonzero"/></clipPath><clipPath id="5234df708b"><path d="M 47.917969 173 L 48 173 L 48 175 L 47.917969 175 Z M 47.917969 173 " clip-rule="nonzero"/></clipPath><clipPath id="d06645ec05"><path d="M 176 174 L 176.851562 174 L 176.851562 176 L 176 176 Z M 176 174 " clip-rule="nonzero"/></clipPath><clipPath id="0c116ea738"><path d="M 47.917969 114 L 176.851562 114 L 176.851562 197.761719 L 47.917969 197.761719 Z M 47.917969 114 " clip-rule="nonzero"/></clipPath></defs><g clip-path="url(#bfb35fa5ec)"><path fill="#ffffff" d="M 112.382812 110.824219 C 131.230469 110.824219 146.511719 92.207031 146.511719 69.242188 C 146.511719 46.28125 141.496094 27.664062 112.382812 27.664062 C 83.273438 27.664062 78.253906 46.28125 78.253906 69.242188 C 78.253906 92.207031 93.535156 110.824219 112.382812 110.824219 Z M 112.382812 110.824219 " fill-opacity="1" fill-rule="nonzero"/></g><g clip-path="url(#5234df708b)"><path fill="#ffffff" d="M 47.921875 174.308594 C 47.917969 172.90625 47.910156 173.914062 47.921875 174.308594 Z M 47.921875 174.308594 " fill-opacity="1" fill-rule="nonzero"/></g><g clip-path="url(#d06645ec05)"><path fill="#ffffff" d="M 176.839844 175.402344 C 176.859375 175.015625 176.847656 172.742188 176.839844 175.402344 Z M 176.839844 175.402344 " fill-opacity="1" fill-rule="nonzero"/></g><g clip-path="url(#0c116ea738)"><path fill="#ffffff" d="M 176.773438 172.632812 C 176.140625 132.628906 170.929688 121.234375 131.074219 114.015625 C 131.074219 114.015625 125.464844 121.183594 112.386719 121.183594 C 99.308594 121.183594 93.699219 114.015625 93.699219 114.015625 C 54.273438 121.152344 48.75 132.378906 48.023438 171.328125 C 47.964844 174.511719 47.933594 174.675781 47.925781 174.308594 C 47.925781 175 47.929688 176.277344 47.929688 178.511719 C 47.929688 178.511719 57.417969 197.699219 112.386719 197.699219 C 167.355469 197.699219 176.84375 178.511719 176.84375 178.511719 C 176.84375 177.078125 176.84375 176.078125 176.84375 175.402344 C 176.832031 175.628906 176.8125 175.1875 176.773438 172.628906 Z M 176.773438 172.632812 " fill-opacity="1" fill-rule="nonzero"/></g></svg>